# xmcd
#
# Track frame offsets: 
#        150
#        16168
#        32127
#        50172
#        67640
#        84523
#        97633
#        111352
#        129557
#        148037
#        164790
#        180563
#        196760
#        216525
#        233003
#
# Disc length: 3412 seconds
#
# Revision: 0
# Processed by: cddbd v1.5.2PL0 Copyright (c) Steve Scherf et al.
# Submitted via: ExactAudioCopyFreeDBPlugin 1.0
#
DISCID=cb0d520f
DTITLE=Various Artist - 15 Favorite Country Love Songs
DYEAR=2013
DGENRE=Country
TTITLE0=Randy Travis - Forever and Ever, Amen
TTITLE1=Big and Rich - Lost in the Moment
TTITLE2=Travis Tritt - Help Me Hold On
TTITLE3=Gloriana - (Kissed You) Goodnight
TTITLE4=Neal McCoy - No Doubt About It
TTITLE5=Conway Twitty - Slow Hand
TTITLE6=Tracy Lawrence - Alibis
TTITLE7=John Michael Montgomery - I Love the Way You Love Me
TTITLE8=Little Texas - My Love
TTITLE9=Bryan White - I'm Not Supposed to Love You Anymore
TTITLE10=The Nitty Gritty Dirt Band - Modern Day Romance
TTITLE11=Michael Peterson - From Here to Eternity
TTITLE12=Clay Walker - This Woman and This Man
TTITLE13=Gary Morris - I'll Never Stop Loving You
TTITLE14=Rodney Crowell - 'till I Gain Control Again
EXTD=
EXTT0=
EXTT1=
EXTT2=
EXTT3=
EXTT4=
EXTT5=
EXTT6=
EXTT7=
EXTT8=
EXTT9=
EXTT10=
EXTT11=
EXTT12=
EXTT13=
EXTT14=
PLAYORDER=
